#!OML:ASF I:\Random Stuff\random\construction\7_22_03\Session 2\subj1.ASF
:FULLY-SPECIFIED
:DEGREES
2695
root 4.24163 17.8279 0.651692 33.5208 93.2082 22.7539
lowerback 1.89038 0.81173 -4.54622
upperback -0.503482 0.983544 0.915962
thorax -1.67191 0.542098 3.46071
lowerneck -21.7991 -2.1428 2.63987
upperneck 42.6 -6.54458 8.7527
head 21.2788 -0.0759225 2.81171
rclavicle -8.32411e-015 -2.78299e-015
rhumerus 10.2115 38.6278 -62.0371
rradius 118.659
rwrist -27.4277
rhand -2.15978 19.9246
rfingers 7.12502
rthumb 23.5201 -8.6574
lclavicle -8.32411e-015 -2.78299e-015
lhumerus -9.21892 -34.1123 79.1965
lradius 119.436
lwrist 39.6896
lhand -17.1903 45.9408
lfingers 7.12502
lthumb 9.05174 795.727
rfemur -13.856 2.24473 21.8739
rtibia 15.1229
rfoot -7.86008 -25.7291
rtoes -7.12612
lfemur -21.675 -32.4375 -7.53702
ltibia 17.5933
lfoot -11.5572 32.6028
ltoes -20.3421
2696
root 4.25274 17.8293 0.661028 35.0159 93.2848 24.1405
lowerback 1.63717 0.77656 -4.12066
upperback -0.522191 0.953938 0.639062
thorax -1.53357 0.518894 2.93935
lowerneck -21.9013 -2.10394 2.81897
upperneck 42.6167 -6.64295 8.91746
head 21.3441 -0.053152 2.84931
rclavicle 2.73329e-015 1.59028e-015
rhumerus 10.9533 39.1311 -62.2265
rradius 118.627
rwrist -26.6127
rhand -1.77945 19.8206
rfingers 7.12502
rthumb 23.8849 -8.71421
lclavicle 2.73329e-015 1.59028e-015
lhumerus -9.2739 -34.5284 79.0509
lradius 119.228
lwrist 39.6984
lhand -17.4451 46.0471
lfingers 7.12502
lthumb 8.80581 795.843
rfemur -13.8178 2.34165 22.0128
rtibia 14.8924
rfoot -7.66577 -25.8193
rtoes -7.3943
lfemur -21.8563 -32.3773 -7.36224
ltibia 17.774
lfoot -11.4022 32.6516
ltoes -21.0763
2697
root 4.26489 17.8295 0.669772 39.2068 93.4253 28.2819
lowerback 1.44187 0.762331 -3.93709
upperback -0.52524 0.948154 0.711084
thorax -1.42458 0.512471 2.91305
lowerneck -21.9616 -2.07885 2.84898
upperneck 42.5879 -6.61087 8.87558
head 21.3336 -0.0442612 2.82582
rclavicle -2.28602e-015 -5.56597e-015
rhumerus 11.8321 39.8757 -61.8965
rradius 118.487
rwrist -25.58
rhand -1.80149 20.1128
rfingers 7.12502
rthumb 23.8638 -8.42476
lclavicle -2.28602e-015 -5.56597e-015
lhumerus -9.40739 -34.7606 79.3528
lradius 119.042
lwrist 39.6467
lhand -17.7405 46.0555
lfingers 7.12502
lthumb 8.52073 795.864
rfemur -13.7242 2.26947 22.3655
rtibia 14.6567
rfoot -7.49416 -25.6875
rtoes -7.66055
lfemur -21.9726 -32.3855 -6.99585
ltibia 17.9652
lfoot -11.6035 32.6952
ltoes -21.123
2698
root 4.27461 17.8284 0.678061 42.4744 93.4355 31.5455
lowerback 1.36168 0.77871 -3.87856
upperback -0.540777 0.974777 0.750217
thorax -1.39732 0.525183 2.92063
lowerneck -21.9776 -2.06015 2.72098
upperneck 42.5107 -6.59692 9.03654
head 21.303 -0.0427641 2.93118
rclavicle 1.33683e-014 1.72943e-014
rhumerus 12.6687 40.6561 -61.5901
rradius 118.305
rwrist -24.0808
rhand -2.17489 20.148
rfingers 7.12502
rthumb 23.5056 -8.43585
lclavicle 1.33683e-014 1.72943e-014
lhumerus -9.63776 -35.0176 79.7018
lradius 118.922
lwrist 39.5027
lhand -17.7968 46.2393
lfingers 7.12502
lthumb 8.46646 796.05
rfemur -13.6055 2.18115 22.5884
rtibia 14.4246
rfoot -7.34725 -25.4662
rtoes -7.75727
lfemur -22.0388 -32.6639 -6.71326
ltibia 18.1475
lfoot -12.0742 33.0102
ltoes -20.4613
2699
root 4.28296 17.8277 0.686326 43.1743 93.4179 32.225
lowerback 1.32569 0.785449 -3.91681
upperback -0.589903 0.983593 0.727219
thorax -1.42861 0.531322 2.91828
lowerneck -21.8615 -1.95979 2.83419
upperneck 42.3134 -6.45994 8.99813
head 21.1046 0.00770474 2.89875
rclavicle -1.59028e-014 1.31198e-014
rhumerus 13.4267 41.3553 -61.3477
rradius 118.091
rwrist -22.3451
rhand -2.54905 19.8782
rfingers 7.12502
rthumb 23.1467 -8.75126
lclavicle -1.59028e-014 1.31198e-014
lhumerus -9.89058 -35.3359 80.0283
lradius 118.839
lwrist 39.28
lhand -17.8434 46.3617
lfingers 7.12502
lthumb 8.42143 796.174
rfemur -13.5302 2.13267 22.6426
rtibia 14.2633
rfoot -7.26051 -25.3726
rtoes -7.78891
lfemur -22.1041 -32.8159 -6.62651
ltibia 18.274
lfoot -12.1859 33.2165
ltoes -20.4925
2700
root 4.29237 17.8276 0.694259 42.1942 93.4672 31.2009
lowerback 1.23753 0.755519 -3.98853
upperback -0.634129 0.945223 0.705009
thorax -1.42239 0.513384 2.9376
lowerneck -21.8622 -1.92668 2.78522
upperneck 42.2781 -6.39714 9.02451
head 21.0786 0.02425 2.93252
rclavicle -1.02374e-014 -1.25234e-014
rhumerus 14.1821 41.9507 -61.0925
rradius 117.734
rwrist -20.6018
rhand -2.79441 19.842
rfingers 7.12502
rthumb 22.9113 -8.8168
lclavicle -1.02374e-014 -1.25234e-014
lhumerus -10.0812 -35.6443 80.3342
lradius 118.747
lwrist 38.9923
lhand -18.0474 46.3374
lfingers 7.12502
lthumb 8.22457 796.157
rfemur -13.5269 2.01881 22.6601
rtibia 14.2407
rfoot -7.26685 -25.344
rtoes -8.13328
lfemur -22.1736 -32.9993 -6.56739
ltibia 18.293
lfoot -12.1541 33.3764
ltoes -20.6206
2701
root 4.30071 17.8282 0.703303 41.5244 93.4795 30.5181
lowerback 1.17843 0.737727 -4.09587
upperback -0.664923 0.921572 0.690081
thorax -1.42057 0.503049 2.98374
lowerneck -21.8819 -1.92141 2.69295
upperneck 42.2774 -6.37062 9.07216
head 21.0897 0.0253432 2.98111
rclavicle 3.47873e-016 1.98785e-016
rhumerus 14.8594 42.426 -60.8968
rradius 117.262
rwrist -18.958
rhand -2.81633 20.1381
rfingers 7.12502
rthumb 22.8902 -8.5233
lclavicle 3.47873e-016 1.98785e-016
lhumerus -10.2456 -35.921 80.6524
lradius 118.669
lwrist 38.6636
lhand -18.2703 46.4829
lfingers 7.12502
lthumb 8.00945 796.311
rfemur -13.5556 1.79252 22.6937
rtibia 14.323
rfoot -7.27409 -25.1805
rtoes -8.87363
lfemur -22.1308 -33.01 -6.5765
ltibia 18.2254
lfoot -12.1001 33.3801
ltoes -20.6642
2702
root 4.3086 17.8282 0.713964 41.3287 93.4012 30.3451
lowerback 1.13156 0.752739 -4.25303
upperback -0.669247 0.940595 0.658539
thorax -1.4025 0.513608 3.03966
lowerneck -21.9311 -1.9115 2.61477
upperneck 42.3039 -6.35657 9.147
head 21.1331 0.0305667 3.04254
rclavicle 2.29099e-014 1.63003e-014
rhumerus 15.4563 42.7497 -60.7683
rradius 116.701
rwrist -17.9073
rhand -2.70769 20.5405
rfingers 7.12502
rthumb 22.9945 -8.10795
lclavicle 2.29099e-014 1.63003e-014
lhumerus -10.4342 -36.1432 80.9803
lradius 118.624
lwrist 38.3511
lhand -18.5222 46.7259
lfingers 7.12502
lthumb 7.76632 796.563
rfemur -13.5794 1.63399 22.6946
rtibia 14.4487
rfoot -7.30046 -24.9917
rtoes -9.17541
lfemur -21.9845 -32.8739 -6.67564
ltibia 18.1297
lfoot -12.028 33.302
ltoes -20.908
2703
root 4.31577 17.8266 0.723885 40.5756 93.2994 29.6339
lowerback 1.11284 0.762812 -4.25291
upperback -0.666157 0.952921 0.471386
thorax -1.38651 0.518515 2.84659
lowerneck -21.9886 -1.87022 2.71731
upperneck 42.3643 -6.37929 9.24224
head 21.2042 0.0596628 3.07836
rclavicle 9.98893e-015 -3.57812e-015
rhumerus 15.9307 42.9409 -60.8925
rradius 116.101
rwrist -17.6488
rhand -2.51151 21.069
rfingers 7.12502
rthumb 23.1827 -7.55591
lclavicle 9.98893e-015 -3.57812e-015
lhumerus -10.6945 -36.396 81.1517
lradius 118.611
lwrist 37.8279
lhand -18.8895 47.0497
lfingers 7.12502
lthumb 7.41185 796.9
rfemur -13.5712 1.61507 22.6383
rtibia 14.5673
rfoot -7.37512 -24.9332
rtoes -9.04543
lfemur -21.8356 -32.8449 -6.79773
ltibia 18.0466
lfoot -12.0042 33.3269
ltoes -21.1261
2704
root 4.32352 17.8248 0.73213 39.8907 93.2372 29.0094
lowerback 1.17043 0.76813 -4.36434
upperback -0.69178 0.954281 0.405923
thorax -1.44616 0.521757 2.84072
lowerneck -22.0515 -1.88696 2.67127
upperneck 42.4844 -6.42237 9.32004
head 21.3251 0.0563311 3.13398
rclavicle 2.30093e-014 -1.15295e-014
rhumerus 16.2878 43.2858 -60.8995
rradius 115.563
rwrist -17.6095
rhand -2.20474 21.4088
rfingers 7.12502
rthumb 23.477 -7.17875
lclavicle 2.30093e-014 -1.15295e-014
lhumerus -11.0116 -36.4535 81.5207
lradius 118.544
lwrist 37.2953
lhand -19.4064 47.3645
lfingers 7.12502
lthumb 6.91284 797.232
rfemur -13.5243 1.49562 22.6225
rtibia 14.6584
rfoot -7.49813 -24.8126
rtoes -9.03153
lfemur -21.6756 -32.7541 -6.93038
ltibia 17.9853
lfoot -11.8549 33.312
ltoes -21.6575
2705
root 4.33627 17.8253 0.739015 39.6059 93.2311 28.7498
lowerback 1.12972 0.765526 -4.4996
upperback -0.707928 0.950411 0.4186
thorax -1.44227 0.521469 2.93028
lowerneck -22.0207 -1.85824 2.78245
upperneck 42.4615 -6.36278 9.17374
head 21.2743 0.0741644 3.045
rclavicle 1.70955e-014 -5.1684e-015
rhumerus 16.5699 43.7341 -60.8469
rradius 115.063
rwrist -17.1305
rhand -2.29636 21.0146
rfingers 7.12502
rthumb 23.3891 -7.5842
lclavicle 1.70955e-014 -5.1684e-015
lhumerus -11.2386 -36.2188 81.9061
lradius 118.445
lwrist 37.323
lhand -19.9631 47.5899
lfingers 7.12502
lthumb 6.37541 797.474
rfemur -13.4964 1.19924 22.6632
rtibia 14.7402
rfoot -7.65447 -24.5527
rtoes -9.03902
lfemur -21.5373 -32.636 -7.01686
ltibia 17.9359
lfoot -11.7561 33.223
ltoes -22.0108
2706
root 4.34811 17.8271 0.745693 39.5387 93.236 28.6749
lowerback 1.06529 0.763297 -4.54785
upperback -0.739169 0.949022 0.38128
thorax -1.43832 0.521658 2.91955
lowerneck -22.0627 -1.87238 2.84658
upperneck 42.527 -6.37123 9.05849
head 21.3216 0.0698608 2.9768
rclavicle 8.89561e-015 1.19271e-014
rhumerus 16.8683 44.1467 -60.8178
rradius 114.584
rwrist -16.1811
rhand -2.86743 20.5101
rfingers 7.12502
rthumb 22.8412 -8.15734
lclavicle 8.89561e-015 1.19271e-014
lhumerus -11.5108 -35.9321 82.2455
lradius 118.377
lwrist 37.3343
lhand -20.5421 47.9398
lfingers 7.12502
lthumb 5.81646 797.84
rfemur -13.5042 0.964015 22.7063
rtibia 14.81
rfoot -7.74821 -24.3441
rtoes -9.03496
lfemur -21.4471 -32.5846 -7.03243
ltibia 17.9045
lfoot -11.9841 33.1008
ltoes -21.497
2707
root 4.35642 17.8264 0.75384 39.0387 93.2085 28.2084
lowerback 0.994699 0.763596 -4.77885
upperback -0.712865 0.950535 0.43231
thorax -1.37681 0.522982 3.10309
lowerneck -22.1394 -1.86431 2.86305
upperneck 42.595 -6.30737 8.89391
head 21.3719 0.0762202 2.90743
rclavicle -1.63997e-015 2.34566e-014
rhumerus 17.4597 44.5241 -60.4211
rradius 114.13
rwrist -15.1808
rhand -3.30626 20.3764
rfingers 7.12502
rthumb 22.42 -8.34242
lclavicle -1.63997e-015 2.34566e-014
lhumerus -11.7276 -35.5985 82.6927
lradius 118.294
lwrist 37.0179
lhand -21.048 48.1996
lfingers 7.12502
lthumb 5.32797 798.113
rfemur -13.469 0.840846 22.7067
rtibia 14.8534
rfoot -7.80984 -24.231
rtoes -8.92168
lfemur -21.3364 -32.4741 -7.10875
ltibia 17.8944
lfoot -12.1892 32.9141
ltoes -21.1625
